<svg width="103" height="104" viewBox="0 0 103 104" fill="none" xmlns="http://www.w3.org/2000/svg">
<path d="M91.9643 0.375H11.0357C8.10886 0.375 5.30188 1.54051 3.23229 3.61513C1.16269 5.68975 0 8.50354 0 11.4375L0 92.5625C0 95.4965 1.16269 98.3102 3.23229 100.385C5.30188 102.459 8.10886 103.625 11.0357 103.625H42.591V68.5223H28.1066V52H42.591V39.4072C42.591 25.0836 51.0977 17.1716 64.1267 17.1716C70.3665 17.1716 76.8913 18.287 76.8913 18.287V32.3456H69.702C62.6185 32.3456 60.409 36.7522 60.409 41.2717V52H76.2223L73.6933 68.5223H60.409V103.625H91.9643C94.8911 103.625 97.6981 102.459 99.7677 100.385C101.837 98.3102 103 95.4965 103 92.5625V11.4375C103 8.50354 101.837 5.68975 99.7677 3.61513C97.6981 1.54051 94.8911 0.375 91.9643 0.375V0.375Z" fill="black"/>
</svg>
