<svg width="95" height="51" viewBox="0 0 95 51" fill="none" xmlns="http://www.w3.org/2000/svg">
<g clip-path="url(#clip0)">
<path d="M0 28.7711H7.23188L11.2789 8.86215H4.047L0 28.7711ZM4.68706 5.73573H11.9154L13.0815 1.23274e-05H5.84487L4.68706 5.73573V5.73573ZM10.0914 34.3776H17.3233L21.7111 12.8307H26.9883L27.8196 8.86215H22.4972L22.6801 7.94178C23.0197 6.24455 23.5719 4.26978 26.2984 4.26978C27.9146 4.26978 29.4631 4.44532 30.9653 5.07629L31.7894 0.882431C30.1145 0.296158 28.3522 -0.00221038 26.5774 1.23274e-05C20.7658 1.23274e-05 16.7627 3.45615 15.2974 8.86215H12.787L12.0009 12.8307H14.4756L10.0914 34.3776Z" fill="#F3D957"/>
<path d="M33.0006 29.2159C41.5388 29.2159 47.4644 21.4248 47.4644 15.0699C47.4644 10.442 43.0849 8.41858 38.9203 8.41858C29.5509 8.41858 24.453 16.7956 24.453 22.5646C24.453 27.1925 28.8776 29.2159 33.0006 29.2159ZM55.8125 29.2159C64.353 29.2159 70.2774 21.4248 70.2774 15.0699C70.2774 10.442 65.8884 8.41858 61.7286 8.41858C52.364 8.41858 47.2578 16.7956 47.2578 22.5646C47.2578 27.1925 51.6871 29.2159 55.8101 29.2159H55.8125ZM82.0349 28.7711H89.2252L95 0.443604H87.7681L86.0451 8.86098C85.0848 8.65367 84.1062 8.54203 83.1238 8.5277C76.0392 8.5277 69.597 17.5274 69.597 23.9593C69.597 26.6054 71.3189 29.2135 74.2425 29.2135C78.3988 29.2135 81.2737 27.183 82.4743 25.2794H82.9231L82.0349 28.7711V28.7711ZM59.7574 43.777C54.4683 48.2745 47.3979 50.5837 39.7136 50.1069C30.0236 49.5115 23.3071 42.0181 21.9557 34.4191H22.4152C24.5955 39.2712 29.9013 43.7521 36.5596 44.4886C43.0611 45.205 51.0281 42.2707 55.4004 38.0816L50.4961 34.3764L65.0584 34.4191L61.9246 49.8175L59.7574 43.777V43.777Z" fill="#F3D957"/>
</g>
<defs>
<clipPath id="clip0">
<rect width="95" height="51" fill="white"/>
</clipPath>
</defs>
</svg>
