<svg width="103" height="104" viewBox="0 0 103 104" fill="none" xmlns="http://www.w3.org/2000/svg">
<path d="M51.5 39.3318C49.0747 39.3327 46.7042 40.0545 44.6881 41.4058C42.6719 42.7572 41.1008 44.6774 40.1733 46.9238C39.2459 49.1702 39.0037 51.6418 39.4774 54.0261C39.9511 56.4105 41.1194 58.6005 42.8347 60.3192C44.5499 62.038 46.7351 63.2084 49.1138 63.6823C51.4926 64.1563 53.9581 63.9126 56.1987 62.982C58.4393 62.0514 60.3543 60.4758 61.7016 58.4543C63.0489 56.4328 63.768 54.0562 63.768 51.625C63.7656 48.3646 62.4721 45.2385 60.1718 42.9335C57.8715 40.6284 54.7525 39.333 51.5 39.3318V39.3318ZM80.1722 29.8826C79.5479 28.2966 78.6051 26.8561 77.4024 25.6505C76.1997 24.4449 74.7627 23.4998 73.1806 22.874C68.3525 20.9634 56.8569 21.3921 51.5 21.3921C46.1431 21.3921 34.659 20.9473 29.8171 22.874C28.235 23.4998 26.798 24.4449 25.5953 25.6505C24.3926 26.8561 23.4498 28.2966 22.8255 29.8826C20.9219 34.7224 21.3472 46.2574 21.3472 51.6227C21.3472 56.988 20.9219 68.5091 22.8347 73.3651C23.459 74.9511 24.4018 76.3916 25.6045 77.5972C26.8072 78.8028 28.2442 79.7478 29.8263 80.3737C34.6544 82.2843 46.15 81.8556 51.5092 81.8556C56.8684 81.8556 68.3479 82.3004 73.1898 80.3737C74.7719 79.7478 76.2089 78.8028 77.4116 77.5972C78.6143 76.3916 79.5571 74.9511 80.1814 73.3651C82.1011 68.5253 81.6597 56.9903 81.6597 51.625C81.6597 46.2597 82.1011 34.7409 80.1814 29.8849L80.1722 29.8826ZM51.5 70.5234C47.7713 70.5234 44.1263 69.4151 41.026 67.3385C37.9257 65.2619 35.5093 62.3104 34.0824 58.8571C32.6555 55.4039 32.2821 51.604 33.0096 47.9381C33.737 44.2722 35.5325 40.9048 38.1691 38.2618C40.8057 35.6188 44.165 33.8189 47.822 33.0897C51.4791 32.3605 55.2697 32.7347 58.7146 34.1651C62.1595 35.5955 65.1039 38.0178 67.1754 41.1256C69.247 44.2334 70.3527 47.8872 70.3527 51.625C70.3557 54.1076 69.8701 56.5665 68.9238 58.8607C67.9774 61.1549 66.5888 63.2395 64.8376 64.995C63.0864 66.7505 61.0069 68.1424 58.7182 69.0911C56.4295 70.0397 53.9766 70.5265 51.5 70.5234V70.5234ZM71.1298 36.3449C70.2593 36.3454 69.4083 36.0871 68.6844 35.6026C67.9604 35.1182 67.396 34.4294 67.0626 33.6234C66.7292 32.8174 66.6417 31.9304 66.8113 31.0746C66.9808 30.2188 67.3997 29.4325 68.015 28.8154C68.6304 28.1983 69.4145 27.7779 70.2681 27.6075C71.1218 27.4371 72.0067 27.5243 72.8109 27.8581C73.6152 28.1919 74.3026 28.7573 74.7862 29.4828C75.2698 30.2083 75.528 31.0612 75.528 31.9337C75.5304 32.5132 75.4187 33.0874 75.1992 33.6234C74.9798 34.1595 74.6569 34.6468 74.2491 35.0575C73.8414 35.4682 73.3567 35.7941 72.823 36.0166C72.2893 36.2391 71.717 36.3538 71.139 36.3541L71.1298 36.3449ZM91.9643 0H11.0357C8.10886 0 5.30188 1.16551 3.23229 3.24013C1.16269 5.31475 0 8.12854 0 11.0625L0 92.1875C0 95.1215 1.16269 97.9352 3.23229 100.01C5.30188 102.084 8.10886 103.25 11.0357 103.25H91.9643C94.8911 103.25 97.6981 102.084 99.7677 100.01C101.837 97.9352 103 95.1215 103 92.1875V11.0625C103 8.12854 101.837 5.31475 99.7677 3.24013C97.6981 1.16551 94.8911 0 91.9643 0V0ZM88.0282 66.8359C87.7316 72.7429 86.3867 77.9768 82.085 82.2773C77.7834 86.5779 72.5667 87.9538 66.681 88.235C60.6091 88.5784 42.4047 88.5784 36.3328 88.235C30.4402 87.9377 25.2373 86.5871 20.9288 82.2773C16.6202 77.9676 15.2661 72.7313 14.9856 66.8359C14.643 60.747 14.643 42.4961 14.9856 36.4141C15.2822 30.5071 16.611 25.2732 20.9288 20.9727C25.2465 16.6721 30.4632 15.3123 36.3328 15.0312C42.4047 14.6878 60.6091 14.6878 66.681 15.0312C72.5736 15.3285 77.7926 16.679 82.085 20.9888C86.3775 25.2986 87.7477 30.5348 88.0282 36.4417C88.3708 42.5077 88.3708 60.7423 88.0282 66.8359Z" fill="black"/>
</svg>
