<svg width="89" height="89" viewBox="0 0 89 89" fill="none" xmlns="http://www.w3.org/2000/svg">
<g clip-path="url(#clip0)">
<path d="M84.2766 27.4603H69.1839C66.5795 27.4603 64.4605 29.5803 64.4605 32.1864V49.5577H58.8153C59.129 48.4172 59.2453 47.072 59.169 45.5065V45.5063C59.0465 38.8906 57.846 33.3149 55.6007 28.934C53.8572 25.5327 51.8225 23.4936 50.0766 22.2745C52.1258 20.1675 53.3107 17.1702 53.3107 13.7133C53.3107 7.49356 48.3491 2.43359 42.2507 2.43359C36.1523 2.43359 31.1907 7.49356 31.1907 13.7133C31.1907 14.4335 31.7744 15.017 32.4944 15.017H33.3802C33.2987 15.5089 33.2552 16.0103 33.2552 16.5194C33.2552 20.9027 36.3873 24.5661 40.5282 25.3871C40.0942 26.9988 39.8784 28.8993 39.8793 31.0582L36.6277 33.8549L28.7159 34.4948L19.5894 31.4778C18.7529 31.1997 17.8049 30.8854 16.9823 31.4785C16.1718 32.0635 16.1718 33.0875 16.1718 33.4238V40.2092C16.1718 40.9294 16.7555 41.5129 17.4755 41.5129H19.0276L16.647 49.7392C16.4469 50.4307 16.8453 51.1538 17.537 51.3539C18.229 51.555 18.9516 51.1555 19.1519 50.464L21.7422 41.5129H25.4486C20.8387 55.5708 23.4691 64.9544 27.5121 74.4508H25.1686L15.4076 63.5368L17.4716 56.4064C17.6719 55.7147 17.2735 54.9917 16.5818 54.7917C15.8902 54.5916 15.1672 54.99 14.967 55.6815L12.9928 62.502C6.8869 62.4001 1.42522 66.6099 0.0333769 72.6666C-0.127762 73.3682 0.310111 74.0676 1.01151 74.229L2.86226 74.6548C2.38944 79.5658 5.62352 84.1992 10.5557 85.3345C11.3047 85.5071 12.0602 85.5923 12.8104 85.5923C14.6607 85.5923 16.4784 85.0736 18.0861 84.0659C19.973 82.8835 21.3789 81.1452 22.1398 79.0909L23.6001 79.4269C24.0352 79.5276 24.4479 79.5785 24.8602 79.3565C25.2438 79.15 25.4989 78.7772 25.5945 78.3563C25.6862 77.9296 25.7561 77.4959 25.8046 77.0582H53.0709C53.9429 82.4794 58.5554 86.5659 64.0642 86.5659C69.573 86.5659 74.1857 82.4794 75.0576 77.0582H76.0526C76.0526 77.0582 76.2501 77.0604 76.2951 77.0604C76.6679 77.0604 77.2065 77.0191 77.6487 76.5692C77.87 76.3441 78.1297 75.9413 78.1097 75.3015C78.073 74.0772 77.8893 72.8943 77.5757 71.77C78.6141 65.4656 77.615 61.6259 76.1338 58.6209C77.0702 58.0071 77.6911 56.9496 77.6911 55.7481V52.165H84.2762C86.8807 52.165 88.9996 50.0449 88.9996 47.4389V32.1862C89 29.5803 86.8812 27.4603 84.2766 27.4603V27.4603ZM16.7016 81.8569C15.0327 82.9028 13.058 83.2353 11.141 82.794H11.1408C7.61246 81.9819 5.25848 78.7464 5.43005 75.2479L19.5715 78.5027C18.9864 79.8803 17.9964 81.0455 16.7016 81.8569V81.8569ZM23.225 76.6653L2.94535 71.9987C4.51032 67.7132 8.72183 64.8763 13.3253 65.1204L23.2598 76.2282C23.2511 76.3747 23.2396 76.5204 23.225 76.6653ZM42.9171 53.9469C42.5387 54.945 42.5387 56.1755 42.5387 57.8789V62.7985H37.7649V56.0491C37.7649 48.4184 41.9294 47.0586 43.7984 46.8342H56.5798C56.5284 48.566 56.1376 49.7971 55.3957 50.5784C54.5311 51.4889 53.0516 51.9325 50.8725 51.9346L46.1929 51.9395C44.5242 51.9397 43.4221 52.6148 42.9171 53.9469V53.9469ZM42.5387 65.4058V68.5187C42.5269 68.5187 42.5147 68.5187 42.5022 68.5187H33.2418C33.346 67.5533 33.6467 66.8062 34.1405 66.2892C34.8751 65.5205 35.9098 65.4058 36.4611 65.4058H42.5387ZM56.5223 44.2269H44.666C44.1899 42.7287 43.7654 41.0881 43.4164 39.402L47.021 37.0622C48.9888 35.7844 50.0124 33.9789 49.8296 32.1083C49.6676 30.4502 48.5403 28.969 46.9578 28.335C45.5126 27.7562 43.957 27.938 42.5822 28.8171C42.6955 27.57 42.9065 26.4568 43.2118 25.5119C43.7675 25.4545 44.3194 25.3459 44.8614 25.1865C45.9647 24.9303 46.9842 24.5219 47.9046 23.9805C50.4155 25.4806 55.9381 30.3464 56.5223 44.2269V44.2269ZM33.8935 12.4098C34.5084 8.24415 38.0218 5.04119 42.2507 5.04119C46.9113 5.04119 50.7032 8.93164 50.7032 13.7135C50.7032 17.6027 48.8382 20.7373 45.831 22.1168V15.2571C45.831 14.0693 45.3764 12.6123 43.2116 12.4152C43.1723 12.4115 43.1328 12.4098 43.0934 12.4098H33.8935ZM35.8628 16.5196C35.8628 16.0051 35.9214 15.5025 36.0367 15.0172H43.0294C43.1099 15.0259 43.1687 15.0353 43.2107 15.0438C43.2175 15.0921 43.2234 15.1616 43.2234 15.2571V22.884C42.9128 22.9297 42.6002 22.9528 42.2879 22.953C42.2849 22.953 42.282 22.953 42.2792 22.953C38.7407 22.9497 35.8628 20.065 35.8628 16.5196ZM34.1727 36.6697L37.2606 36.4199C37.5358 36.3979 37.7967 36.2889 38.0061 36.109L43.5791 31.3157L43.5799 31.3148C44.1188 30.8505 44.694 30.6124 45.2541 30.6124C45.5033 30.6124 45.7497 30.6596 45.9883 30.7552C46.6772 31.0311 47.1663 31.6618 47.2348 32.3616C47.3209 33.2424 46.7406 34.1352 45.6015 34.875L39.3915 38.9057H34.173V36.6697H34.1727ZM28.663 37.1154L31.5653 36.8808V38.906H28.1928C27.7557 38.906 27.6491 38.5427 27.6366 38.238C27.6295 38.0652 27.6458 37.1989 28.663 37.1154V37.1154ZM25.5774 36.2154C25.1847 36.8592 25.0014 37.6124 25.0314 38.3447C25.0392 38.5344 25.0634 38.7171 25.0971 38.8951C25.0971 38.8987 25.095 38.9024 25.0957 38.9059H18.7795V33.9565L25.5825 36.2053C25.5804 36.2087 25.5793 36.2121 25.5774 36.2154V36.2154ZM28.2001 41.5133H39.7773C40.0291 41.5133 40.2758 41.4403 40.487 41.3031L41.0772 40.92C41.361 42.1747 41.6843 43.3957 42.0365 44.5489C39.3776 45.3337 35.1573 47.87 35.1573 56.049V62.9293C34.2426 63.1139 33.1605 63.5404 32.2554 64.4876C31.3012 65.4861 30.7563 66.839 30.6256 68.5185H27.9955C25.3454 60.8809 24.3375 52.7534 28.2001 41.5133V41.5133ZM30.349 74.4464C29.8672 73.3383 29.4027 72.2343 28.9653 71.1261H42.502C44.2565 71.1261 45.1459 70.3274 45.1459 68.7523V64.1021V59.1824H55.4364C56.1566 59.1824 56.7401 58.5989 56.7401 57.8787C56.7401 57.1585 56.1566 56.575 55.4364 56.575H45.1553C45.172 55.8345 45.2195 55.2288 45.3552 54.8711C45.4211 54.6971 45.4781 54.5469 46.1941 54.5469L50.875 54.5421C53.8066 54.5393 55.9038 53.8301 57.2866 52.3737C57.3506 52.3063 57.4111 52.2355 57.4717 52.1651H65.7644H75.0842V55.7483C75.0842 56.1964 74.7065 56.575 74.2594 56.575H61.2805C60.5603 56.575 59.9768 57.1585 59.9768 57.8787C59.9768 58.5989 60.5603 59.1824 61.2805 59.1824H73.4933C74.5238 61.095 75.4506 63.4749 75.3955 67.235C72.8163 63.6522 68.6407 61.3485 63.9018 61.3485C60.096 61.3485 56.5249 62.8413 53.846 65.5522C51.4689 67.9574 50.0413 71.0792 49.7475 74.4508L30.349 74.4464ZM64.0644 83.9588C59.9888 83.9588 56.5515 81.0223 55.7199 77.0585H72.4088C71.577 81.022 68.1398 83.9588 64.0644 83.9588V83.9588ZM73.8898 74.4511H54.2392H52.3662C53.0063 68.5561 57.9353 63.9559 63.9018 63.9559C69.1401 63.9559 73.5392 67.41 74.9961 72.2454C75.0007 72.2607 75.0054 72.276 75.0107 72.2911C75.2166 72.9849 75.3621 73.707 75.4409 74.4511H73.8898ZM86.3926 47.4391C86.3926 48.6074 85.4433 49.5577 84.2766 49.5577H67.0679V42.8252H86.3926V47.4391ZM86.3926 40.2177H67.0679V37.445H86.3926V40.2177ZM86.3926 34.8376H67.0679V32.1864C67.0679 31.0181 68.0172 30.0677 69.1839 30.0677H84.2766C85.4433 30.0677 86.3926 31.0182 86.3926 32.1864V34.8376Z" fill="#F3D957"/>
</g>
<defs>
<clipPath id="clip0">
<rect width="89" height="89" fill="white"/>
</clipPath>
</defs>
</svg>
