<svg width="110" height="47" viewBox="0 0 110 47" fill="none" xmlns="http://www.w3.org/2000/svg">
<path fill-rule="evenodd" clip-rule="evenodd" d="M85.2063 18.3435C85.0557 19.158 84.8177 20.0985 84.4984 21.135C84.1776 22.1715 83.7664 23.265 83.2814 24.3735C82.7542 25.491 82.2075 26.5365 81.6593 27.4785C81.117 28.4115 80.5748 29.214 80.0552 29.8635C79.5476 30.4965 79.0762 30.9645 78.6574 31.2555C78.3412 31.4745 78.1649 31.4985 78.1047 31.4985C78.0761 31.4985 78.0535 31.494 78.0294 31.4835C77.9767 31.4595 77.8004 31.3425 77.7236 30.786C77.6513 30.276 77.6905 29.6055 77.8366 28.794C77.9872 27.9585 78.2237 27.009 78.5445 25.9785C78.8608 24.948 79.272 23.8545 79.7645 22.731C80.2525 21.6165 80.7857 20.577 81.352 19.6395C81.9153 18.7035 82.4635 17.91 82.9832 17.28C83.4877 16.665 83.9592 16.2045 84.3839 15.909C84.7017 15.69 84.8764 15.666 84.9367 15.666C84.9668 15.666 84.9894 15.6705 85.0105 15.681C85.0632 15.7035 85.2394 15.822 85.3177 16.3785C85.3885 16.8885 85.3509 17.5485 85.2063 18.3435V18.3435ZM64.0626 18.3435C63.912 19.158 63.674 20.0985 63.3547 21.135C63.0324 22.1775 62.6212 23.2695 62.1377 24.3735C61.6091 25.494 61.0623 26.5395 60.5156 27.4785C59.9719 28.413 59.4312 29.2155 58.9115 29.8635C58.4039 30.4965 57.934 30.9645 57.5123 31.2555C57.196 31.4745 57.0213 31.4985 56.961 31.4985C56.9324 31.4985 56.9098 31.494 56.8857 31.4835C56.833 31.4595 56.6568 31.3425 56.58 30.786C56.5077 30.2775 56.5453 29.6085 56.6929 28.794C56.842 27.96 57.08 27.0135 57.4008 25.9785C57.7171 24.9465 58.1283 23.8545 58.6208 22.731C59.1103 21.6135 59.645 20.574 60.2068 19.6395C60.7732 18.702 61.3214 17.9085 61.8395 17.28C62.3456 16.665 62.8185 16.203 63.2403 15.909C63.5566 15.69 63.7328 15.666 63.793 15.666C63.8232 15.666 63.8457 15.6705 63.8668 15.681C63.9195 15.7035 64.0973 15.822 64.1741 16.3785C64.2449 16.8885 64.2072 17.5485 64.0626 18.3435V18.3435ZM41.1537 18.1335C41.0604 18.9615 40.8796 19.9065 40.616 20.9445C40.351 21.9795 39.9895 23.0685 39.5391 24.1845C39.0903 25.2945 38.6128 26.3385 38.1173 27.2865C37.6323 28.2135 37.1428 29.004 36.6593 29.637C36.1894 30.252 35.7481 30.711 35.3459 31.0005C35.0492 31.215 34.8835 31.239 34.8278 31.239C34.8022 31.239 34.7796 31.2345 34.7555 31.224C34.7013 31.2 34.5145 31.0785 34.4181 30.513C34.3278 29.9955 34.3202 29.328 34.3925 28.527C34.4678 27.714 34.638 26.7795 34.9001 25.7505C35.1622 24.72 35.5252 23.6295 35.977 22.5105C36.4319 21.3855 36.9109 20.343 37.4004 19.407C37.8823 18.4815 38.3734 17.682 38.8598 17.0295C39.3268 16.3995 39.7696 15.9345 40.1702 15.645C40.4669 15.4305 40.6326 15.4065 40.6898 15.4065C40.7154 15.4065 40.738 15.411 40.7591 15.4215C40.8164 15.4455 41.0107 15.5715 41.1296 16.1445C41.2351 16.6545 41.2426 17.3235 41.1522 18.135L41.1537 18.1335ZM87.4776 11.2545C88.5846 11.2545 89.5365 11.592 90.3077 12.2595C91.0517 12.903 91.5834 13.8225 91.8862 14.991C92.1799 16.1235 92.2401 17.493 92.0669 19.0635C91.8937 20.6145 91.4388 22.3845 90.7113 24.324C90.026 26.157 89.2398 27.7695 88.3783 29.115C87.9611 29.769 87.5318 30.381 87.0965 30.9465C87.0408 31.0185 87.1236 31.113 87.2035 31.0695C87.4565 30.933 87.708 30.7845 87.9566 30.6225C88.5229 30.258 89.0666 29.865 89.5832 29.4495C91.0246 28.287 92.0714 26.715 92.5805 24.948C92.8847 23.8845 93.2221 22.83 93.5896 21.7905C94.1921 20.079 94.8352 18.4815 95.5025 17.0415C96.1652 15.606 96.7165 14.532 97.1412 13.8465C97.6232 13.0665 98.2979 12.5805 99.1519 12.4005C99.9502 12.2325 100.714 12.2445 101.416 12.4335C102.134 12.6285 102.722 12.9825 103.16 13.4895C103.637 14.043 103.741 14.673 103.458 15.312C103.374 15.5325 103.152 16.0365 102.8 16.812C102.446 17.592 102.048 18.5025 101.586 19.6005C101.142 20.655 100.685 21.7965 100.23 22.9905C99.786 24.1635 99.4381 25.2585 99.1971 26.2455C98.9622 27.2055 98.8703 28.0035 98.923 28.617C98.9742 29.2035 99.1986 29.2035 99.3206 29.2035C99.4923 29.2035 99.7966 29.1225 100.27 28.7385C100.724 28.3635 101.205 27.912 101.7 27.39C102.196 26.8665 102.672 26.3025 103.112 25.7145C103.514 25.179 103.859 24.705 104.139 24.3045C104.383 23.955 104.771 23.7555 105.204 23.7555C105.66 23.7555 106.103 23.9835 106.333 24.336C106.558 24.681 106.552 25.092 106.314 25.461C106.016 25.9245 105.494 26.7015 104.72 27.84C103.954 28.965 103.036 30.1245 101.994 31.2885C100.934 32.469 99.7755 33.5175 98.548 34.404C97.2572 35.3385 95.9528 35.811 94.6741 35.811C93.5174 35.811 92.6543 35.412 92.1076 34.623C91.6105 33.903 91.3575 32.937 91.3575 31.752V31.563C91.3605 31.422 91.1948 31.3425 91.0849 31.431C90.8424 31.6245 90.5924 31.8165 90.3378 32.0055C88.8347 33.12 87.0995 34.065 85.1777 34.8165C83.4621 35.4885 81.5719 35.829 79.5596 35.829L79.15 35.8245L78.7388 35.811C77.3682 35.808 76.3515 35.3805 75.7144 34.536C75.6014 34.3875 75.4975 34.2345 75.4056 34.077C75.3318 33.951 75.1405 33.972 75.0984 34.113C74.892 34.7985 74.6962 35.46 74.5155 36.093C74.1239 37.4535 73.7895 38.631 73.4958 39.693C73.2006 40.758 72.9445 41.7285 72.7337 42.582C72.5303 43.404 72.3888 44.07 72.3165 44.5635L72.3119 44.5815C72.1267 45.516 71.4926 45.8445 70.991 45.957C70.7681 46.0065 70.5362 46.032 70.3012 46.032C69.8765 46.032 69.4276 45.9495 68.9682 45.789C68.2694 45.543 67.6413 45.1185 67.0991 44.526C66.5373 43.911 66.2526 43.1415 66.2526 42.2385C66.2526 42.0555 66.2993 41.655 66.6593 40.1805C66.9289 39.093 67.2919 37.74 67.7422 36.1575C68.0465 35.085 68.3929 33.918 68.777 32.67C68.8221 32.52 68.6504 32.3955 68.5209 32.484C67.1819 33.3915 65.6803 34.176 64.0415 34.8165C62.3245 35.4885 60.4358 35.829 58.4235 35.829C58.1524 35.829 57.8753 35.823 57.6012 35.811C56.232 35.808 55.2154 35.3805 54.5768 34.536C54.4638 34.3875 54.3614 34.236 54.2695 34.077C54.1942 33.951 54.0044 33.9735 53.9622 34.113C53.7544 34.8 53.5586 35.463 53.3778 36.093C52.9847 37.458 52.6504 38.637 52.3597 39.693C52.0645 40.758 51.8069 41.7285 51.596 42.582C51.3927 43.4055 51.2526 44.0715 51.1788 44.5635L51.1758 44.5815C50.9906 45.516 50.355 45.8445 49.8534 45.957C49.6305 46.0065 49.4 46.032 49.1651 46.032C48.7403 46.032 48.2915 45.9495 47.8306 45.789C47.1317 45.543 46.5052 45.1185 45.963 44.526C45.4012 43.911 45.1165 43.1415 45.1165 42.2385C45.1165 42.054 45.1617 41.6535 45.5232 40.1805C45.7943 39.0825 46.1572 37.7295 46.6046 36.1575C46.8697 35.223 47.1634 34.227 47.4932 33.1515C47.5414 32.9895 47.3426 32.8665 47.2161 32.982C46.6543 33.492 46.0759 33.9675 45.4825 34.4025C44.2098 35.337 42.9145 35.811 41.6342 35.811C40.4775 35.811 39.6129 35.412 39.0677 34.623C38.8478 34.305 38.6761 33.9375 38.5511 33.525C38.4411 33.1575 37.9682 33.045 37.7001 33.3225C37.3235 33.7125 36.9094 34.068 36.465 34.3815C35.8867 34.7895 35.2405 35.1315 34.5416 35.3985C33.8217 35.6715 33.043 35.811 32.2267 35.811C31.1226 35.811 30.1542 35.4765 29.3499 34.815C28.5667 34.176 27.9868 33.27 27.6238 32.1195C27.2713 31.005 27.1418 29.6355 27.2382 28.047C27.3346 26.478 27.6931 24.717 28.3046 22.8105C29.6074 18.8565 31.3064 15.921 33.3563 14.0805C35.4438 12.2055 37.5615 11.2545 39.6506 11.2545C40.5347 11.2545 41.2833 11.4315 41.8722 11.7795C42.4521 12.1245 42.8994 12.5805 43.2021 13.1355C43.404 13.509 43.5516 13.9095 43.6419 14.3355C43.6585 14.4105 43.7609 14.4255 43.7986 14.358C43.904 14.169 44.0049 13.9995 44.0998 13.845C44.5818 13.068 45.2475 12.582 46.0804 12.4005C46.8591 12.2325 47.6213 12.243 48.3427 12.432C49.0822 12.627 49.6802 12.9825 50.12 13.4895C50.5974 14.043 50.7014 14.673 50.4167 15.312C50.3339 15.5295 50.12 16.0215 49.76 16.812C49.4091 17.586 48.9994 18.5235 48.546 19.6005C48.0972 20.667 47.6408 21.8085 47.1905 22.9905C46.7447 24.1635 46.3967 25.26 46.1573 26.2455C45.9223 27.207 45.8304 28.005 45.8831 28.617C45.9343 29.2035 46.1588 29.2035 46.2792 29.2035C46.4525 29.2035 46.7567 29.1225 47.2281 28.7385C47.4887 28.524 47.7598 28.2825 48.037 28.017C49.1109 26.9865 49.8308 25.8615 50.3113 24.462C50.9499 22.605 51.6216 20.772 52.3115 19.005C53.048 17.1255 53.7664 15.438 54.4472 13.989C54.8027 13.239 55.366 12.7335 56.1161 12.4905C56.8194 12.2625 57.5409 12.2145 58.2503 12.348C58.9582 12.483 59.5788 12.7635 60.0939 13.1835C60.3228 13.3695 60.5051 13.5705 60.6406 13.782C60.6768 13.839 60.7189 13.845 60.7686 13.7985C61.3771 13.239 62.0489 12.726 62.7733 12.2685C63.8337 11.595 65.0341 11.2545 66.3415 11.2545C67.447 11.2545 68.4004 11.592 69.1701 12.2595C69.9156 12.9045 70.4473 13.8225 70.75 14.991C71.0437 16.122 71.104 17.493 70.9308 19.0635C70.7576 20.613 70.3012 22.3845 69.5752 24.324C68.8884 26.1585 68.1022 27.771 67.2407 29.115C66.8234 29.769 66.3942 30.381 65.9589 30.9465C65.9032 31.0185 65.9875 31.113 66.0673 31.0695C66.3189 30.933 66.5704 30.7845 66.8204 30.6225C67.2256 30.3615 67.6187 30.0855 67.9983 29.7975C69.4412 28.7055 70.5181 27.2115 71.0919 25.5105L71.3179 24.846C71.9956 22.851 72.7126 20.886 73.4476 19.005C74.1856 17.1225 74.9041 15.435 75.5849 13.989C75.9388 13.239 76.5006 12.735 77.2537 12.4905C77.9571 12.2625 78.6785 12.2145 79.3879 12.348C80.0958 12.483 80.7149 12.7635 81.23 13.182C81.4589 13.3695 81.6412 13.5705 81.7767 13.782C81.8129 13.839 81.855 13.845 81.9048 13.7985C82.5132 13.239 83.185 12.726 83.9095 12.2685C84.9713 11.595 86.1717 11.2545 87.4776 11.2545V11.2545ZM18.2027 1.91099C19.7902 1.91099 21.3807 2.09399 22.9321 2.45249C24.494 2.81549 25.9113 3.36749 27.1418 4.09349C28.3874 4.82849 29.4101 5.75099 30.1813 6.83549C30.9675 7.93949 31.3651 9.23399 31.3651 10.683C31.3651 12.243 31.0157 13.707 30.3259 15.033C29.6421 16.3455 28.7007 17.544 27.5304 18.5955C26.3707 19.6395 24.9955 20.5605 23.4427 21.3315C22.1624 21.9675 20.8023 22.5105 19.3895 22.947C19.2992 22.9755 19.2675 23.022 19.2721 23.112C19.3022 23.802 19.3519 24.4845 19.4227 25.1415C19.5025 25.896 19.6079 26.631 19.7375 27.3285C19.864 28.014 20.0176 28.6815 20.1908 29.313C20.3264 29.802 20.477 30.2775 20.6382 30.729C20.7406 31.017 20.849 31.299 20.959 31.563C21.1804 32.0955 21.4244 32.6055 21.6834 33.078C21.938 33.543 22.2136 33.984 22.5028 34.389C22.7845 34.7835 23.0872 35.154 23.402 35.493C23.7093 35.823 24.0346 36.126 24.369 36.396C24.6943 36.6585 25.0377 36.897 25.3886 37.101C25.7305 37.302 26.089 37.476 26.455 37.62C26.815 37.761 27.187 37.875 27.562 37.9575C27.9386 38.04 28.3257 38.0925 28.7173 38.118C29.1074 38.142 29.514 38.1375 29.9192 38.1015C30.3319 38.0655 30.7536 37.9995 31.1723 37.902C31.6016 37.803 32.0384 37.6725 32.4737 37.512C32.9195 37.347 33.3698 37.146 33.8142 36.9195C33.9844 36.8325 34.1561 36.7395 34.3263 36.6435C34.8805 36.3285 35.5884 36.4785 35.9605 36.9885C36.334 37.4985 36.2512 38.2035 35.7692 38.6175C35.5327 38.82 35.2947 39.018 35.0598 39.207C34.4889 39.666 33.9166 40.092 33.3578 40.4715C32.8276 40.8315 32.2884 41.1675 31.7552 41.466C31.4886 41.616 31.2085 41.763 30.9238 41.904C30.3771 42.177 29.8243 42.417 29.2776 42.618C28.7338 42.8175 28.1871 42.984 27.6539 43.11C27.1222 43.236 26.586 43.3275 26.0634 43.38C25.6899 43.4175 25.3163 43.437 24.9518 43.437C24.8042 43.437 24.6566 43.434 24.509 43.4265C24.003 43.4055 23.4999 43.347 23.0119 43.2525C22.7709 43.206 22.5269 43.149 22.2889 43.083C22.0585 43.0215 21.822 42.948 21.5855 42.8625C21.1322 42.7005 20.6818 42.501 20.2511 42.2685C19.8294 42.0405 19.4136 41.778 19.019 41.487C18.6997 41.2515 18.3864 40.992 18.0897 40.7175C17.7328 40.3875 17.3848 40.02 17.055 39.63C16.7296 39.2445 16.4179 38.8275 16.1287 38.391C15.838 37.956 15.5639 37.491 15.3108 37.011C15.0593 36.531 14.8198 36.021 14.6029 35.496C14.3875 34.9755 14.1872 34.4235 14.005 33.852C13.8257 33.291 13.6616 32.697 13.517 32.085C13.3739 31.4745 13.2489 30.8415 13.145 30.2025C13.0516 29.637 12.9733 29.0505 12.9115 28.455C12.8934 28.275 12.6329 28.251 12.5801 28.4265C12.3542 29.2035 12.1494 29.9565 11.9686 30.6765C11.7412 31.5795 11.5318 32.4015 11.3421 33.1395C11.1568 33.8625 11.0258 34.4445 10.9505 34.869C10.7998 35.622 10.2983 36.0975 9.49399 36.252C8.80266 36.387 8.06012 36.33 7.29498 36.087C6.53888 35.8455 5.85207 35.427 5.2511 34.8405C4.62152 34.2255 4.30222 33.453 4.30222 32.5425C4.30222 31.8015 4.49199 30.63 4.88059 28.9635C5.26014 27.336 5.80688 25.407 6.50876 23.2275C7.20461 21.066 8.04957 18.6825 9.01804 16.1475C9.84945 13.9695 10.7833 11.7765 11.7954 9.61349C12.1268 8.90549 12.8121 8.41799 13.6028 8.32799C15.3907 8.12399 16.942 8.17498 18.2569 8.47798C19.0492 8.66098 19.4739 9.50548 19.1425 10.233C18.2946 12.09 17.5129 13.9425 16.814 15.7455C16.2492 17.205 15.707 18.6495 15.1949 20.055C15.1452 20.1945 15.2897 20.3235 15.4253 20.262C16.1076 19.9545 16.7809 19.5915 17.4391 19.1775C18.5175 18.498 19.4995 17.6865 20.3595 16.767C21.215 15.8475 21.9169 14.811 22.4456 13.6845C22.9667 12.5685 23.2318 11.3565 23.2318 10.0785C23.2318 8.43599 22.7679 7.22249 21.8536 6.47399C20.9274 5.71649 19.623 5.33099 17.9753 5.33099C16.2206 5.33099 14.6165 5.73899 13.2082 6.54449C11.7623 7.36949 10.5122 8.38349 9.49249 9.55949C8.46528 10.7445 7.65496 12.0105 7.08713 13.323C6.52382 14.6235 6.23765 15.7635 6.23765 16.713C6.23765 17.3925 5.87165 17.883 5.20743 18.0945C4.62454 18.2805 3.9814 18.2535 3.3217 18.012C2.6876 17.781 2.10019 17.3235 1.57454 16.6545C1.04587 15.9825 0.777771 15.072 0.777771 13.9485C0.777771 12.9675 1.15733 11.8125 1.93752 10.4175C2.69664 9.05699 3.82024 7.73249 5.2737 6.47999C6.72565 5.23049 8.55715 4.14599 10.723 3.25799C12.901 2.36399 15.4178 1.91099 18.2027 1.91099V1.91099ZM104.607 0.872986C107.037 0.872986 109.005 2.80799 109.005 5.19299C109.005 7.57799 107.037 9.51299 104.607 9.51299C102.178 9.51299 100.209 7.57799 100.209 5.19299C100.209 2.80799 102.178 0.872986 104.607 0.872986V0.872986Z" fill="#F3D957"/>
</svg>
