<svg width="93" height="66" viewBox="0 0 93 66" fill="none" xmlns="http://www.w3.org/2000/svg">
<path d="M45.7027 54.5042C45.7027 50.8612 42.7643 47.9988 39.0563 47.9988C35.4008 47.9988 32.4099 50.8612 32.4099 54.5042C32.4099 58.1473 35.4008 61.0097 39.0563 61.0097C42.7643 61.0097 45.7027 58.1473 45.7027 54.5042V54.5042ZM51.1247 43.8526V65.1732H45.5977V63.2476C43.6738 64.8263 41.2426 65.711 38.6015 65.711C32.0601 65.711 26.9528 60.7321 26.9528 54.5042C26.9528 48.2937 32.0776 43.2975 38.6015 43.2975C41.2426 43.2975 43.6738 44.1822 45.5977 45.7609V43.8526H51.1247V43.8526ZM69.4897 60.3331H65.327C64.0677 60.3331 63.2456 59.7954 63.2456 58.6504V48.6753H69.4722V43.8526H63.2456V37.7809H57.6662V43.8526H53.4684V48.6927H57.6662V60.0209C57.6662 62.8833 59.7475 65.1559 63.4905 65.1559H69.4722V60.3331H69.4897ZM82.0829 65.711C88.4669 65.711 92.07 62.7445 92.07 58.6504C92.07 55.7359 89.9361 53.5675 85.476 52.6307L80.7536 51.6939C78.0251 51.2081 77.1506 50.7051 77.1506 49.7162C77.1506 48.4325 78.4624 47.6518 80.8935 47.6518C83.5346 47.6518 85.4586 48.3457 86.0182 50.7051H91.5452C91.2479 46.264 87.9422 43.2975 81.2608 43.2975C75.489 43.2975 71.4312 45.6221 71.4312 50.1152C71.4312 53.2205 73.67 55.2502 78.4798 56.239L83.7445 57.4187C85.8259 57.8177 86.3856 58.3555 86.3856 59.1882C86.3856 60.524 84.8114 61.3567 82.2753 61.3567C79.092 61.3567 77.2555 60.6628 76.5559 58.3034H70.9764C71.7985 62.7445 75.1916 65.711 82.0829 65.711V65.711ZM4.65247 36.2889H25.4837V41.2157H10.2844V48.2763H25.0814V53.0644H10.2844V60.2117H25.4837V65.1385H4.65247V36.2889Z" fill="#F3D957"/>
<path d="M86.8403 11.5364V7.66778H85.3536C82.9924 7.66778 81.2434 8.74335 80.1939 10.4261V7.82391H75.9612V28.8322H80.2289V16.8969C80.2289 13.6355 82.2578 11.5364 85.0563 11.5364H86.8403V11.5364ZM56.127 16.3938C56.8966 13.1844 59.5551 11.0333 62.7209 11.0333C65.8867 11.0333 68.5628 13.1671 69.2799 16.3938H56.127ZM62.8084 7.42491C56.5118 7.42491 51.7194 12.4038 51.7194 18.3367C51.7194 24.5993 56.7042 29.3006 63.1932 29.3006C67.1285 29.3006 70.3468 27.6179 72.4981 24.8075L69.4023 22.587C67.7932 24.6861 65.6768 25.6749 63.1757 25.6749C59.5377 25.6749 56.6167 23.1248 56.0221 19.7072H73.5825V18.3541C73.6 12.0741 69.035 7.42491 62.8084 7.42491ZM38.3916 25.6749C34.2464 25.6749 30.9407 22.4135 30.9407 18.3888C30.9407 14.312 34.2814 11.1027 38.3916 11.1027C42.4494 11.1027 45.7901 14.312 45.7901 18.3888C45.8076 22.4135 42.4669 25.6749 38.3916 25.6749ZM26.7605 28.8496H30.9932V26.2127C32.9346 28.1557 35.6981 29.3353 38.689 29.3353C45.038 29.3353 50.0228 24.4259 50.0228 18.3714C50.0228 12.2823 45.038 7.37286 38.689 7.37286C35.6806 7.37286 32.9696 8.56987 31.0281 10.4955V0H26.7605V28.8496V28.8496ZM11.7361 25.4667C15.8464 25.4667 19.0122 22.3788 19.0122 17.799V0H23.4548V28.8322H19.0472V26.1607C17.0532 28.173 14.3072 29.3353 11.2114 29.3353C4.86236 29.3353 0 24.8422 0 18.0418V0H4.46008V17.799C4.46008 22.4655 7.59088 25.4667 11.7361 25.4667Z" fill="#F3D957"/>
</svg>
