<svg width="37" height="42" viewBox="0 0 37 42" fill="none" xmlns="http://www.w3.org/2000/svg">
<path d="M31.4583 7.96523C27.9978 4.51992 23.3893 2.625 18.4917 2.625C8.38281 2.625 0.15692 10.7953 0.15692 20.8359C0.15692 24.0434 0.99933 27.177 2.60156 29.9414L0 39.375L9.72076 36.8402C12.3967 38.2922 15.4112 39.0551 18.4835 39.0551H18.4917C28.5924 39.0551 37 30.8848 37 20.8441C37 15.9797 34.9187 11.4105 31.4583 7.96523V7.96523ZM18.4917 35.9871C15.7498 35.9871 13.0656 35.257 10.7283 33.8789L10.175 33.5508L4.41027 35.052L5.94643 29.4656L5.58304 28.8914C4.05513 26.4797 3.25402 23.6988 3.25402 20.8359C3.25402 12.4934 10.0924 5.70117 18.5 5.70117C22.5717 5.70117 26.3955 7.27617 29.2696 10.1391C32.1437 13.002 33.9112 16.8 33.9029 20.8441C33.9029 29.1949 26.8911 35.9871 18.4917 35.9871V35.9871ZM26.8498 24.6504C26.3955 24.4207 24.1408 23.3215 23.7196 23.1738C23.2984 23.018 22.9929 22.9441 22.6873 23.4035C22.3817 23.8629 21.5062 24.8801 21.2337 25.1918C20.9694 25.4953 20.6969 25.5363 20.2426 25.3066C17.5502 23.9695 15.7828 22.9195 14.0071 19.8926C13.5364 19.0887 14.4779 19.1461 15.3533 17.407C15.502 17.1035 15.4277 16.841 15.3121 16.6113C15.1964 16.3816 14.2797 14.1422 13.8998 13.2316C13.5281 12.3457 13.1482 12.4688 12.8674 12.4523C12.6031 12.4359 12.2975 12.4359 11.992 12.4359C11.6864 12.4359 11.1908 12.5508 10.7696 13.002C10.3484 13.4613 9.16741 14.5605 9.16741 16.8C9.16741 19.0395 10.8109 21.2051 11.0339 21.5086C11.2652 21.8121 14.2632 26.4059 18.8634 28.3828C21.7705 29.6297 22.9103 29.7363 24.3638 29.523C25.2475 29.3918 27.0728 28.4238 27.4527 27.3574C27.8326 26.291 27.8326 25.3805 27.717 25.1918C27.6096 24.9867 27.304 24.8719 26.8498 24.6504Z" fill="white"/>
</svg>
